<?xml version="1.0" encoding="UTF-8"?>
<svg width="800" height="600" viewBox="0 0 800 600" fill="none" xmlns="http://www.w3.org/2000/svg">
  <rect width="800" height="600" fill="#F3F4F6"/>
  <path d="M400 200C400 252.5 357.5 295 305 295C252.5 295 210 252.5 210 200C210 147.5 252.5 105 305 105C357.5 105 400 147.5 400 200Z" fill="#E5E7EB"/>
  <path d="M400 200C400 252.5 357.5 295 305 295C252.5 295 210 252.5 210 200C210 147.5 252.5 105 305 105C357.5 105 400 147.5 400 200Z" stroke="#9CA3AF" stroke-width="2"/>
  <path d="M400 200C400 252.5 357.5 295 305 295" stroke="#9CA3AF" stroke-width="2" stroke-dasharray="4 4"/>
  <path d="M100 500H700V525H100V500Z" fill="#E5E7EB"/>
  <path d="M100 500H700V525H100V500Z" stroke="#9CA3AF" stroke-width="2"/>
  <path d="M100 500H700" stroke="#9CA3AF" stroke-width="2" stroke-dasharray="4 4"/>
  <path d="M100 100H700V450H100V100Z" stroke="#9CA3AF" stroke-width="2" stroke-dasharray="4 4"/>
  <text x="400" y="350" font-family="Arial" font-size="24" fill="#9CA3AF" text-anchor="middle">Image not found</text>
</svg>
